<?xml version="1.0" encoding="UTF-8"?>
<svg xmlns="http://www.w3.org/2000/svg" xmlns:xlink="http://www.w3.org/1999/xlink" viewBox="0 0 321 262">
   <g fill="none" fill-rule="evenodd">
      <path fill="#B39F66" d="M17.4 164.3h290l11.7-13.8-25.2 7.4-73.7-23.2-57.7 1.2-61.6-2.2-76.7 20.5-14.3-3.7z" />
      <path d="M307.4 166.3h-290c-.7 0-1.4-.4-1.8-1l-7.5-13.9c-.4-.7-.3-1.6.2-2.2.5-.6 1.3-.9 2.1-.7l13.8 4.8 76.2-21.6c.2-.1.4-.1.6-.1l61.5 2.2 57.6-1.2c.2 0 .4 0 .6.1l73.1 23.1 23.2-7.3c.8-.2 1.8.1 2.2.8.5.7.4 1.7-.1 2.4l-10.3 13.9c-.3.5-.8.7-1.4.7zm-288.8-4h287.8l6.8-8.1-18.8 5.6c-.4.1-.8.1-1.2 0l-73.4-23.2-57.3 1.2h-.1l-61.3-2.2L24.6 156c-.3.1-.7.1-1 0l-9.8-2.6 4.8 8.9z" fill="#8E762F" />
      <circle fill="#B6A269" cx="161.4" cy="83.1" r="80.6" />
      <g fill="#FFF">
         <path d="M159.5 83.1l-3.3.5-9.6 1.4v-.1l-65.5 8.9c.1.5.1 1.1.2 1.6l78-12.3h.2zM150.4 72.7l-47.9-45-1.2 1.2 49 43.9.1-.1zM149 74.5L94.3 37.8c-.3.5-.6.9-.9 1.4l55.4 35.6c.1-.1.1-.2.2-.3zM151.1 71.9l8.5 9 .8.7-.4-.5L107 23c-.4.4-.8.7-1.2 1.1l45.3 47.8zM149.6 73.6l7.6 6L159 81l.2.2-61.1-48.5c-.3.4-.7.9-1 1.3l52.4 39.9.1-.3zM146.7 80.2l12.3 2.1-77.1-14.5c-.1.5-.2 1.1-.3 1.6l65.1 10.8zM159.7 82.1l.2.1-2.6-1.2 3.3 1.4.2.1-5.1-2.2-67.8-31.2c-.2.5-.5 1-.7 1.5l67 29 5.5 2.5zm-12-5.2l4.7 2-4.7-2zM146.5 81.4l8.4.8 3.9.3-77.9-8.3c-.1.6-.1 1.1-.2 1.7l65.8 5.6v-.1z" />
         <path d="M152.2 71l5.6 7.1 2.2 2.8.4.6.2.3-.1-.1.4.6.1.1-.3-.3.2.2-.1-.2.1.1-4.5-6.5 3.4 5.1L112.1 19c-.4.3-.9.7-1.3 1l41.3 51.1.1-.1zM146.4 82.5l13.2.3-1.5-.1-77.7-1.8v1.6l66 .4v-.4zM157.1 80.4l-8.9-4.7.1-.2 8.6 4.8-66-37c-.3.5-.6 1-.8 1.4l69.7 37.1-2.7-1.4zM147.3 77.8l6.7 2.4 3.4 1.1-72-26.2c-.2.5-.4 1.1-.6 1.6l62.5 21.1zM147 79l6.9 1.9 4.9 1.2-75.4-20.6c-.1.5-.3 1.1-.4 1.6l64 16.1V79zM117.4 15.2c-.5.3-.9.6-1.4.9l44.1 64.6-42.7-65.5zM172.8 73.2l50.3-41.9c-.4-.4-.7-.9-1.1-1.3l-49.4 43c.1.1.2.1.2.2zM173.5 74.1l-8.3 5.9-2.5 1.9.3-.2 64.1-45.3c-.3-.4-.6-.9-.9-1.3L173.4 74l.1.1zM172 72.3l-9.7 9.6-.2.3.5-.4 56.3-55.3-1.1-1.1L172 72.2v.1zM174.1 75l-5.6 3.4-6.4 4h-.1l-.3.2h.1l.7-.3.5-.2 1-.5 4.9-2.1-4.3 1.8 69.1-33.9c-.2-.5-.5-.9-.7-1.4l-58.3 30 .1.2-11.7 5.8-.8.4.1-.1h-.1l68.4-40.5c-.3-.5-.6-.9-.8-1.4L174.1 75zM176.2 80.8l65.1-8.4c-.1-.5-.1-1.1-.2-1.6l-64.9 9.8v.2zM162.4 82.7h-.5.1-.2 3l77.2 1.6v-1.6h-78.5l3.1-.2 75.3-3.8c0-.5-.1-1.1-.1-1.6L163 82.7h-.6zm13.9.2v.1l-7.7-.2 7.7.1zm0-1.1v.1l-8.1.5 8.1-.6zM175.3 77.4l-11.2 4.4.8-.2 71.4-28.2c-.2-.5-.4-1-.6-1.4l-60.6 25c.1.1.1.3.2.4zM176 79.6L240.2 66c-.1-.5-.2-1.1-.4-1.6l-63.9 15 .1.2zM175.6 78.4l62.9-18.7c-.2-.6-.4-1.1-.5-1.7l-62.4 20.2v.2zM161 79.8l-.2-2.6-1.1-9.2h.2L154 2.7c-.6 0-1.1.1-1.7.2l8.6 76.9h.1zM161.2 82.1l-.1-.3v.1l-.1-.2.2.5v-.1.1l.1.1v-.2.1l-.2-.8v.2l-3.8-13.2.3-.1-16.5-63.5c-.5.1-1 .3-1.5.4l21.5 76.5.1.4zM156.2 68.8l3.6 9.7-24.9-71.8c-.5.2-1.1.4-1.6.5l22.9 61.6zM154.3 69.6l5.8 10.6.6 1.4.2.2v.1l-.1-.2.2.3.2.2-.2-.2-.2-.5v.1l-.4-.8.2.4-1.4-2.9.7 1.6-37-67.9c-.4.2-.9.5-1.3.8L154 69.9l.3-.3zM166 68.6l20-62.4c-.5-.2-1-.3-1.5-.5l-18.8 62.8.3.1zM155.2 69.2l4.1 8.9L128.9 9c-.5.2-1 .5-1.5.7l27.8 59.5z" />
         <path d="M161.1 81.5l-2.6-13.3.3-.1-11.3-64.6c-.5.1-1 .2-1.6.3l14.9 76.4.3 1.3zM159.8 82.9l-13.3.9v-.2l-66 3.7c0 .5.1 1 .1 1.6l77.3-5.7 1.9-.3zM164.8 68.3l-2.9 12.8-.2.6v.2-.1.1-.3l-.2.8v.2-.1l.4-.5-.1.2 9.1-11 .2.2L214 22c-.4-.3-.8-.7-1.2-1l-49.7 59.4L209 18l-1.2-.9L170 70.6l.2.1-7.6 10.4L169 72l-5.9 8.3-.6.9-.4.6-.2.2.1-.3.7-1.3 1.7-2.8 4.6-7.8.2.1 34.5-55.6c-.5-.3-.9-.6-1.4-.9l-39.5 66.8L198 11c-.5-.2-.9-.5-1.4-.7l-28.7 58.9.3.1-5.8 11.5.1-.1-.6 1.2-.1.2.2-.5-.1.2 4.9-10.1-4.6 9.5 1.5-4 28.6-68.9c-.5-.2-1-.4-1.6-.6L167 68.8h.1l-1.8 4.5 1.4-3.6-1.8 4.6-2.4 6-.1.5.9-2.2-1.3 3.5.1-.1-.2.3v-.1l.4-1.1-.2.6 1.4-4.9-1.2 4L180 4.6c-.5-.1-1-.2-1.5-.4l-13.6 64.1c-.3-.1-.2-.1-.1 0zm-2.3 13l-.3.4.3-.4zm-.9.9l-.1.2v-.1l-.1.1v-.1l.1-.4v.1-.1l.1.3zm.1-.3l.1-.3-.1.3zM173.3 3.2c-.5-.1-1.1-.1-1.6-.2l-9.8 77.4 11.4-77.2zM161.1 67.9l.2 8.9-.9-74.4h-1.6l2.1 65.5h.2z" />
         <path d="M162.3 67.9l-.4 6.6-.3 6.2-.2 1.2v.4l.1-.6v.3l.2-.8.1-1.5.4-3.4-.4 2.6 5-76.3c-.5 0-1-.1-1.6-.1l-2.9 65.4zM160.6 97.7l.2-3.6.4-8.6v.3l-4.8 78c.6 0 1.1.1 1.7.1l2.5-66.2zM161.9 97.7h-.2l1.2 66.1h1.6l-3-79.1.4 13zM162.4 92.7l.6 4.9h-.1l6.4 65.8c.6-.1 1.1-.1 1.7-.2l-9.2-77.9.6 7.4zM158.3 97.4h-.2l-14.8 64.5c.6.1 1.1.3 1.7.4l14.5-70.6-1.2 5.7zM158.8 91.3l-1.7 5.8h-.1l-20 63.1c.5.2 1.1.3 1.6.5l21.5-73.6-1.3 4.2zM159.3 97.6l1.6-10.8.4-3.2v.1-.2l-.8 3.8.5-2.1-11.1 77.8c.5.1 1 .1 1.5.2l8.1-65.7-.2.1zM163.9 96.4l.2 1.1 11.6 65.1c.6-.1 1.1-.2 1.7-.3l-15.2-75.9 1.7 10zM171.7 93.6l-.2.1-6.2-6.8-2.8-2.9 1 1.3 52.6 56.9c.4-.4.8-.7 1.1-1.1l-48-50.1 2.5 2.6zM170.6 94.6l-6.7-8.7-1.3-1.6.1.2 48.5 62.1c.4-.3.9-.7 1.3-1l-41.7-51.2-.2.2zM172.5 92.8l48.1 45c.4-.4.8-.9 1.1-1.3l-56.1-49.9 6.9 6.2z" />
         <path d="M160.1 87l.8-2.7.2-.7v.1l.2-.5V83v.7l.1.5v-.3l.1.6-.1-.8v-.2l.2.8v-.2.1l-.2-.7v-.1l.1.2v-.2.1-.4H161.2h.1-.1l-.5-.1.5.1-5.9-1 4.9.9.9.1h-.6.1-.6l1.2.1h.2-.1.2H161.2h.2H161.1l-.1.1h.1-.1l-.6.2.4-.2-13.5 4.4c0-.1-.1-.2-.1-.3l-63.3 19.3c.2.5.3 1 .5 1.5l74.9-24.5-8.6 3.5L86 112.7c.2.5.4 1.1.6 1.6l67.6-28.5 5.1-2-70.6 35c.2.5.5 1 .7 1.4l66.1-34.4 3.7-1.8-67.4 40.5c.3.5.6.9.9 1.4l56-35.2-.1-.2 9.1-5.4 2-1.2.7-.3.3-.2h.1l.1-.1-.3.2.4-.2.2-.1h.1l.1-.1-.1.1-.2.2-.4.6.2-.3-.4.5-1.2 1.7-45.6 62.8c.4.3.9.6 1.3.9l45.6-65.5-.2.4.5-.7-.2.4.2-.3-.2.4-.3.5-2.6 5.3-33 65.4c.5.2 1 .5 1.5.8l33.6-70.1.5-1 .2-.4-.2.4.7-1.3-5.1 13.2-.3-.1-24.8 61c.5.2.9.4 1.4.6l28.6-74.4-.8 2.8zm-12 2.6l5.4-2.8-5.4 2.8zm11.9-6.2l-3.4 1.3 3.5-1.5.5-.2-.6.4zm.9-.3l.2-.1-.2.1zm0 0l.2-.1-.2.1zM152.7 95l3.2-4.6-3.2 4.6zm2.1 1.2l2.4-4.9-2.4 4.9zm6.3-12.9l-.1.2.1-.2zm-.4 1l.2-.5-.1.2.2-.4.2-.4v-.1l-.5 1.2zM169.6 95.3l-6.9-10.5-.6-.9v-.1l.1.1-.2-.3-.2-.3v.1l.1.1-.2-.3v.1l-.1-.1.7 1.3.6.8 1.9 3.5.8 1.5-.6-1.1 35.2 64.6 1.5-.9-36.1-62.6-2.6-4.8 42.9 64.8c.4-.3.8-.6 1.3-.9L169.8 95l-.2.3zm-.8.5l-3.1-5.4 3.1 5.4zM164.8 90.6l-2.9-6.6-.1-.4.1.3-.2-.4.1.4.4.8 4.5 12-.3.1 22.2 62.3c.5-.2 1-.4 1.4-.5l-27.8-73.8 2.6 5.8zM167.4 96.5l27.1 60.2c.5-.2 1-.4 1.4-.6l-28.2-59.7c-.1 0-.2 0-.3.1z" />
         <path d="M154.4 94.4l-.7 1.2-34.6 56.5 1.5.9 38.8-66.5-5 7.9zM153.7 84.6l-6.8 1.6v-.1l-64.6 14.1c.1.6.3 1.1.4 1.6l74.9-18.1-3.9.9zM173.3 91.8l-.2.2 51.8 40.7c.3-.4.7-.8 1-1.2l-63.4-47.9 10.8 8.2zM152.6 93.1l-.9 1.1-43.2 50.2c.4.4.8.7 1.3 1.1l50.4-61.1-7.6 8.7zM160.2 84.1l-1.4 1.6 1.7-2 .3-.3-.1.1.1-.1-2 2 1.5-1.6-56.6 56.1 1.2 1.2 53.7-55.5 1.6-1.5zm-9.3 9.4l-.1-.1 7.8-7.7-7.7 7.8zM150 92.5L99.3 135c.4.4.7.9 1.1 1.3l49.7-43.7s0-.1-.1-.1zM149.2 91.5L95.4 130c.3.5.6.9 1 1.4l53-39.6-.2-.3zM163.9 91.9l1.5 5.3h-.1l16.9 63.9c.5-.1 1.1-.3 1.6-.5l-21.6-75.3 1.7 6.6zM175.6 87.5l-.1.3 62 22.1c.2-.5.3-1 .5-1.5l-65.2-21.9 2.8 1zM175.8 86.7l63.5 17c.1-.5.3-1 .4-1.6l-63.8-15.8-.1.4zM176.1 85.5L162.6 83h-.2l1.6.4 76.8 13.9.3-1.5-64.9-10.6-.1.3zM163.1 83.7l11.4 6.1-.1.2 57.7 31.8c.3-.5.5-.9.7-1.4l-68.7-36.3-1-.4z" />
         <path d="M165.5 84.3l-2.8-1-.6-.3.1.1-.4-.1h.2l.7.2-.4-.1 9.9 2.7-9.5-2.6h.3l-.7-.2h.1l-.3-.1-.3-.1h-.1.2l.6.3h-.1l12.9 5.6-.3.3 60 26.9c.2-.5.4-.9.6-1.4L163 83.4l2.5.9zM176.3 84.3l65.4 6.6c.1-.5.1-1.1.1-1.6l-65.5-5.2v.2zM172.3 89.9l1.6 1 54.7 36.6c.3-.5.6-1 1-1.5l-60.1-38 2.8 1.9z" />
      </g>
      <circle fill="#F2ECDF" cx="160.8" cy="83.1" r="68" />
      <path d="M27.4 196.7h12.8c.2 0 .3 0 .3.4s-.1.4-.3.4h-3.6c-.7 0-.7.1-.5.8l6.2 20.1c.5 1.5 1.1 3.3 1.4 4.8h.2l5.2-17.4c2-6.7 1.9-8.1-2.7-8.3-.2 0-.3 0-.3-.4s.1-.4.3-.4h9.4c.2 0 .3 0 .3.4 0 .3-.1.4-.4.4-2.7.2-3.6 1.3-5.8 8.6l-7.4 24.4c-.1.2-.3.4-.5.4h-1.2c-.3 0-.4-.1-.5-.4l-7.9-26-7.9 26c-.1.2-.3.4-.5.4h-1.2c-.3 0-.4-.1-.5-.4l-9.8-32.1c-.2-.7-.3-.8-1-.8H9.4c-.2 0-.3 0-.3-.4s.1-.4.3-.4h12.8c.2 0 .3 0 .3.4s-.1.4-.3.4h-3.6c-.7 0-.7.1-.5.8l6.2 20.1c.5 1.5 1.1 3.3 1.4 4.8h.2l6.1-20.1-1.5-4.8c-.2-.7-.3-.8-1-.8h-2.1c-.2 0-.3 0-.3-.4.1-.4.2-.5.3-.5zM57.8 221.6c0-.4.1-.4.3-.4h2.1c.7 0 .8-.1.8-.8v-22.1c0-.7-.1-.8-.8-.8h-2c-.2 0-.3 0-.3-.4s.1-.4.3-.4h10.2c.2 0 .3 0 .3.4s-.1.4-.3.4h-2c-.7 0-.8.1-.8.8v22.1c0 .7.1.8.8.8h2.1c.2 0 .3 0 .3.4s-.1.4-.3.4H58c-.1 0-.2 0-.2-.4zM74.5 221.2h2.1c.7 0 .8-.1.8-.8v-22.1c0-.7-.1-.8-.8-.8h-2c-.2 0-.3 0-.3-.4s.1-.4.3-.4h11c.2 0 .3 0 .3.4s-.1.4-.3.4h-2.9c-.7 0-.8.1-.8.8v22.1c0 .7.1.8.8.8H87c5 0 6.1-2.7 7-7.8 0-.2.1-.3.5-.3s.4.1.4.3v7.9c0 .7-.1.8-.8.8H74.5c-.2 0-.3 0-.3-.4s.1-.5.3-.5zM100.4 221.2h2.1c.7 0 .8-.1.8-.8v-22c0-.7-.1-.8-.8-.8h-2c-.2 0-.3 0-.3-.4s.1-.4.3-.4h10.2c.2 0 .3 0 .3.4s-.1.4-.3.4h-2c-.7 0-.8.1-.8.8v9.7l6.3-5.9c3.8-3.6 4-4.4.2-4.6-.2 0-.3-.1-.3-.4 0-.4.1-.4.3-.4h8.6c.2 0 .3 0 .3.4 0 .3-.1.4-.3.4-2.9.2-3.7.9-8.1 5.2l-3.6 3.4 11 14.3c.6.7.7.8 1.2.8h1.9c.2 0 .3 0 .3.4s-.1.4-.3.4h-10.9c-.2 0-.3 0-.3-.4s.1-.4.3-.4h2.4c.5 0 .6-.1 0-.8l-7.7-10.1c-.6-.7-1-1.4-1.1-1.7h-.2v11.7c0 .7.1.8.8.8h2.1c.2 0 .3 0 .3.4s-.1.4-.3.4h-10.3c-.2 0-.3 0-.3-.4-.1-.3 0-.4.2-.4zM129.6 221.6c0-.4.1-.4.3-.4h2.1c.7 0 .8-.1.8-.8v-22.1c0-.7-.1-.8-.8-.8h-2c-.2 0-.3 0-.3-.4s.1-.4.3-.4h10c.2 0 .3 0 .3.4s-.1.4-.3.4h-2c-.7 0-.8.1-.8.8v22.1c0 .7.1.8.8.8h2.1c.2 0 .3 0 .3.4s-.1.4-.3.4h-10.3c-.2 0-.2 0-.2-.4zM145.1 221.2c3.2-.2 3.5-.7 3.5-6.4v-16.4c0-.7-.1-.8-.8-.8h-2c-.2 0-.3 0-.3-.4s.1-.4.3-.4h7.5c.3 0 .5.1.7.5l11.5 17.5h.2V204c0-5.7-.3-6.3-4-6.4-.2 0-.3-.1-.3-.4 0-.4.1-.4.3-.4h8.5c.2 0 .3 0 .3.4 0 .3-.1.4-.3.4-3.2.2-3.5.7-3.5 6.4v17.7c0 .3 0 .5-.4.5h-1c-.3 0-.5-.2-.6-.4l-15-22.7h-.2v15.7c0 5.7.3 6.3 4.2 6.4.2 0 .3.1.3.4 0 .4-.1.4-.3.4H145c-.2 0-.3 0-.3-.4.1-.2.2-.4.4-.4zM184.9 206.8c4.6 2.1 6.8 4.5 6.8 8 0 4.4-3.2 7.8-8.1 7.8-2.8 0-4.2-1.4-6-1.4-.6 0-1.1.2-1.4.7-.2.2-.4.4-.6.4-.2 0-.3-.1-.3-.4v-8.3c0-.2.1-.3.5-.3.2 0 .4.1.4.3.5 4.5 3 8.1 7.5 8.1 3.2 0 5.3-1.7 5.3-4.5 0-2.7-1.7-4.1-5.7-6.2-4.2-2.1-7.2-4.2-7.2-8.3 0-3.8 3.4-6.7 7.2-6.7 2.3 0 3.7 1.2 5.1 1.2.4 0 .9-.2 1.1-.4.3-.3.3-.4.6-.4.2 0 .3.1.3.4v6.6c0 .2 0 .3-.4.3-.3 0-.4-.1-.4-.3-.6-4-2.6-6.6-6.2-6.6-2.6 0-4.5 1.5-4.5 3.9-.1 2.8 2.1 4.3 6 6.1zM211.1 208.3v.2c5.8.5 8.1 3.3 8.1 6.7 0 4-3.2 6.9-9.6 6.9h-11.5c-.2 0-.3 0-.3-.5 0-.3.1-.4.3-.4h2.1c.7 0 .8-.1.8-.8v-22.1c0-.7-.1-.8-.8-.8h-2c-.2 0-.3 0-.3-.4s.1-.4.3-.4h10.4c6.5 0 9.1 2.4 9.1 6 0 2.7-2.2 5-6.6 5.6zm.4-9.6c-.8-.8-1.7-1.1-3.3-1.1h-1.8c-.7 0-.8.1-.8.8v9.7h2.6c1.5 0 2.4-.4 3.2-1.1.9-.9 1.4-2.3 1.4-4.2 0-2.1-.5-3.2-1.3-4.1zm1.3 11.6c-.9-.9-2.2-1.4-4.4-1.4h-2.9v11.5c0 .7.1.8.8.8h2.8c1.7 0 2.8-.4 3.5-1.1 1.1-1 1.7-2.6 1.7-5 0-2.3-.4-3.7-1.5-4.8zM223.8 196.7h10.4c.2 0 .3 0 .3.4s-.1.4-.3.4H232c-.7 0-.8.1-.8.8v16c0 4.9 2.1 7.1 5.9 7.1 3.7 0 6.5-2.3 6.5-7.1V204c0-5.7-.3-6.3-3.6-6.4-.2 0-.3-.1-.3-.4 0-.4.1-.4.3-.4h8c.2 0 .3 0 .3.4 0 .3-.1.4-.3.4-3.2.2-3.5.7-3.5 6.4v10.3c0 5.3-2.9 8.2-8.8 8.2-5.4 0-9.1-2.9-9.1-8.2v-16c0-.7-.1-.8-.8-.8h-2c-.2 0-.3 0-.3-.4.1-.3.2-.4.3-.4zM252.9 221.2h2.1c.7 0 .8-.1.8-.8v-22.1c0-.7-.1-.8-.8-.8h-2c-.2 0-.3 0-.3-.4s.1-.4.3-.4h10.6c6 0 8.9 2.3 8.9 5.7 0 2.9-2.3 5.4-6.8 5.9v.2c4.9.5 7.3 3.4 7.3 7.8v2.9c0 1.2.5 1.9 1.6 1.9.7 0 1.3-.3 1.8-.5.2-.1.5.6.4.7-.8.6-2.1 1-3.5 1-2.4 0-4.8-1.4-4.8-4.5V213c0-2.9-2-4.1-4.9-4.1h-3v11.4c0 .7.1.8.8.8h2.4c.2 0 .3 0 .3.4s-.1.4-.3.4h-10.6c-.2 0-.3 0-.3-.4-.3-.2-.2-.3 0-.3zm13.3-22.5c-.8-.8-1.7-1.1-3.3-1.1h-1.8c-.7 0-.8.1-.8.8v9.9h2.3c1.7 0 2.7-.5 3.4-1.2.9-.9 1.5-2.4 1.5-4.4 0-2-.5-3.1-1.3-4zM296.6 196.3c4.1 0 5.9 1.8 7.6 1.8 1.1 0 1.6-.3 1.9-.9.2-.4.4-.5.6-.5.2 0 .3.1.3.5v10.6c0 .1-.1.3-.4.3-.3 0-.4-.1-.4-.3-1.1-6.8-2.8-10.7-9.6-10.7-2.1 0-4.1.7-5.6 2.3-2 2-3 4.8-3 14.3s1 12.3 3 14.3c1.5 1.5 3.5 2.3 5.6 2.3 4.2 0 7-2.6 7-6.9v-5.6c0-.7-.1-.8-.8-.8h-3.6c-.2 0-.3 0-.3-.4s.1-.4.3-.4h13.2c.2 0 .3 0 .3.4s-.1.4-.3.4h-2.6c-.7 0-.8.1-.8.8v12.4c0 .4 0 .5-.3.5s-.4-.1-.6-.5c-.5-.8-1.5-1.3-3-1.3-2.9 0-3.8 2.2-8.5 2.2-8.3 0-15.1-7.5-15.1-17.4 0-9.9 6.8-17.4 15.1-17.4z" fill="#2E4922" />
      <path d="M82.2 247.5v.1c5.2.4 7.7 3.5 7.7 6.6 0 3.7-3.1 6.7-9 6.7H70c-.1 0-.2 0-.2-.3s.1-.3.2-.3h2.4c.5 0 .6-.1.6-.6v-22.4c0-.5-.1-.6-.6-.6H70c-.1 0-.2 0-.2-.3s.1-.3.2-.3h10.1c5.7 0 8.4 2.5 8.4 5.9 0 2.7-2.1 5-6.3 5.5zm.7-9.8c-.6-.6-1.5-.9-2.8-.9h-2.5c-.5 0-.6.1-.6.6v10h3c1.6 0 2.3-.4 3-1.1.8-.8 1.2-2.2 1.2-4.2 0-2.2-.5-3.5-1.3-4.4zm.9 11.5c-.9-.8-2.2-1.3-3.8-1.3h-3v11.8c0 .5.1.6.6.6h3.3c1.2 0 2.4-.5 3-1.1 1-.9 1.6-2.5 1.6-5.1-.1-2.3-.5-3.8-1.7-4.9zM106.4 235.8c5.8 0 11.8 5.5 11.8 12.8 0 7.3-5.3 12.8-11.8 12.8-6.7 0-11.8-5.5-11.8-12.8 0-7.3 6-12.8 11.8-12.8zm-4.5 23.2c1.1 1.1 2.4 1.8 4.5 1.8 2.2 0 3.6-.6 4.7-1.7 1.7-1.7 2.3-4.6 2.3-10.4 0-5.8-.6-8.7-2.3-10.4-1.1-1.1-2.8-1.7-4.7-1.7-2 0-3.4.6-4.5 1.7-1.7 1.7-2.5 4.6-2.5 10.4 0 5.7.8 8.6 2.5 10.3zM134.6 247.7v.1c4.5.5 6.9 2.2 6.9 6.5v4c0 1.4.6 2.1 1.6 2.1.5 0 1.2-.3 1.7-.5.1-.1.4.3.3.4-.7.6-1.8 1-3.2 1-2.8 0-4.6-1.5-4.6-4.1v-5.1c0-2.8-2.2-4.1-4.7-4.1h-3v11.6c0 .5.1.6.6.6h2.1c.1 0 .2 0 .2.3s-.1.3-.2.3h-9.8c-.1 0-.2 0-.2-.3s.1-.3.2-.3h2.4c.5 0 .6-.1.6-.6v-22.4c0-.5-.1-.6-.6-.6h-2.3c-.1 0-.2 0-.2-.3s.1-.3.2-.3h9.8c5.7 0 8.5 2.3 8.5 5.8 0 3.3-2.4 5.4-6.3 5.9zm.6-9.8c-.7-.7-1.5-1.1-3-1.1h-2c-.5 0-.6.1-.6.6v10.2h2.3c1.6 0 2.4-.3 3.3-1.1.7-.7 1.4-2.5 1.4-4.4 0-2.1-.6-3.5-1.4-4.2zM159.5 235.8c5.8 0 11.8 5.5 11.8 12.8 0 7.3-5.3 12.8-11.8 12.8-6.7 0-11.8-5.5-11.8-12.8 0-7.3 6-12.8 11.8-12.8zM155 259c1.1 1.1 2.4 1.8 4.5 1.8s3.6-.6 4.7-1.7c1.7-1.7 2.3-4.6 2.3-10.4 0-5.8-.6-8.7-2.3-10.4-1.1-1.1-2.8-1.7-4.7-1.7-1.9 0-3.4.6-4.5 1.7-1.7 1.7-2.5 4.6-2.5 10.4 0 5.7.8 8.6 2.5 10.3zM175.7 236.1h9.9c.1 0 .2 0 .2.3s-.1.3-.2.3h-2.5c-.5 0-.6.1-.6.6v16c0 4.8 2.2 7.2 5.9 7.2 3.6 0 6.2-2.4 6.2-7.2v-10.7c0-4.7-.4-5.7-3.6-5.8-.1 0-.2 0-.2-.3s.1-.3.2-.3h7.5c.1 0 .2 0 .2.3s-.1.3-.2.3c-2.8.1-3.2 1.1-3.2 5.8v10.7c0 5.2-2.7 8-8.3 8-5.2 0-8.7-2.9-8.7-8v-16c0-.5-.1-.6-.6-.6h-2.1c-.1 0-.2 0-.2-.3.1-.2.2-.3.3-.3zM213 235.8c3 0 4.3 1.3 5.6 1.3.8 0 1.1-.2 1.4-.7.2-.3.3-.3.4-.3.2 0 .2.1.2.4v7.8c0 .1-.1.2-.3.2-.2 0-.3-.1-.3-.2-.8-5-2.1-7.8-7.1-7.8-1.6 0-3 .5-4.1 1.7-1.4 1.5-2.2 3.5-2.2 10.5s.7 9 2.2 10.5c1.1 1.1 2.6 1.7 4.1 1.7 3.1 0 5.1-1.9 5.1-5.1v-4.1c0-.5-.1-.6-.6-.6h-2.7c-.1 0-.2 0-.2-.3s.1-.3.2-.3h9.7c.1 0 .2 0 .2.3s-.1.3-.2.3h-1.9c-.5 0-.6.1-.6.6v9.1c0 .3 0 .4-.2.4s-.3-.1-.4-.3c-.4-.6-1.1-1-2.2-1-2.1 0-2.8 1.6-6.2 1.6-6.1 0-11.1-5.5-11.1-12.8.1-7.4 5.1-12.9 11.2-12.9zM228.4 260.3h2.4c.5 0 .6-.1.6-.6v-22.4c0-.5-.1-.6-.6-.6h-2.3c-.1 0-.2 0-.2-.3s.1-.3.2-.3h9.8c.1 0 .2 0 .2.3s-.1.3-.2.3H236c-.5 0-.6.1-.6.6v9.7h9.4v-9.7c0-.5-.1-.6-.6-.6h-2.3c-.1 0-.2 0-.2-.3s.1-.3.2-.3h9.8c.1 0 .2 0 .2.3s-.1.3-.2.3h-2.3c-.5 0-.6.1-.6.6v22.4c0 .5.1.6.6.6h2.4c.1 0 .2 0 .2.3s-.1.3-.2.3h-10c-.1 0-.2 0-.2-.3s.1-.3.2-.3h2.4c.5 0 .6-.1.6-.6v-12.1h-9.4v12.1c0 .5.1.6.6.6h2.4c.1 0 .2 0 .2.3s-.1.3-.2.3h-10c-.1 0-.2 0-.2-.3 0-.2.1-.3.2-.3z" fill="#8E762F" />
      <path d="M160.6 165.9c-45.7 0-82.8-37.1-82.8-82.8C77.8 37.4 114.9.3 160.6.3c45.7 0 82.8 37.1 82.8 82.8 0 45.7-37.1 82.8-82.8 82.8zm0-161.6c-43.4 0-78.8 35.3-78.8 78.8s35.3 78.8 78.8 78.8c43.4 0 78.8-35.3 78.8-78.8S204.1 4.3 160.6 4.3z" fill="#8E7630" />
      <path d="M160.5 151.9c-38 0-68.9-30.9-68.9-68.9 0-38 30.9-68.9 68.9-68.9 38 0 68.9 30.9 68.9 68.9 0 38-30.9 68.9-68.9 68.9zm0-134.8c-36.3 0-65.9 29.6-65.9 65.9 0 36.3 29.6 65.9 65.9 65.9 36.3 0 65.9-29.6 65.9-65.9 0-36.3-29.6-65.9-65.9-65.9z" fill="#8E7630" />
      <path d="M160.6 165.9c-45.7 0-82.8-37.1-82.8-82.8C77.8 37.4 114.9.3 160.6.3c45.7 0 82.8 37.1 82.8 82.8 0 45.7-37.1 82.8-82.8 82.8zm0-161.6c-43.4 0-78.8 35.3-78.8 78.8s35.3 78.8 78.8 78.8c43.4 0 78.8-35.3 78.8-78.8S204.1 4.3 160.6 4.3z" fill="#8E7630" />
      <path d="M160.6 137.5c-30 0-54.4-24.4-54.4-54.4s24.4-54.4 54.4-54.4S215 53.1 215 83.1s-24.4 54.4-54.4 54.4zm0-104.8c-27.8 0-50.4 22.6-50.4 50.4 0 27.8 22.6 50.4 50.4 50.4 27.8 0 50.4-22.6 50.4-50.4 0-27.8-22.6-50.4-50.4-50.4z" fill="#8E7630" />
      <g fill="#8E7630">
         <path d="M194.3 31.3c1.4-2.1 1.8-2.7 2.1-3.2.3-.5.1-.7-.7-1.3l.2-.2c.5.3 1.3 1 2.2 1.6.8.6 1.8 1.2 2.3 1.5l-.1.2c-.9-.5-1.1-.6-1.4-.2-.3.4-1.1 1.4-2.2 3.1l-2.3 3.4c-1.2 1.8-1.8 2.8-2.1 3.3-.3.5-.2.7.6 1.3l-.2.2c-.5-.4-1.4-1-2.3-1.6-.9-.6-1.9-1.2-2.3-1.5l.2-.2c.9.5 1.1.6 1.5.2.3-.4 1-1.3 2.3-3.2l2.2-3.4zM213.2 50.7c2.1-1.3 2.8-1.7 3.2-2 .5-.3.4-.5-.1-1.5l.2-.1c.3.5.8 1.5 1.3 2.4.5.9 1.1 1.8 1.4 2.3l-.2.2c-.6-.8-.7-1-1.2-.7-.5.2-1.6.8-3.3 1.9l-3.5 2.1c-1.9 1.1-2.8 1.7-3.3 2.1-.5.3-.4.5 0 1.4l-.2.1c-.3-.5-.8-1.5-1.4-2.4-.5-.9-1.2-1.9-1.5-2.4l.2-.1c.6.8.8 1 1.3.8.4-.2 1.5-.8 3.4-1.9l3.7-2.2zM216.5 56.7c2.3-1 3-1.4 3.4-1.6.5-.3.4-.5.1-1.5l.2-.1c.2.5.6 1.5 1.1 2.5.4.9.9 1.9 1.2 2.4l-.2.1c-.5-.9-.6-1-1.1-.9-.5.2-1.6.6-3.5 1.5l-3.7 1.7c-2 .9-3 1.4-3.5 1.7-.5.3-.5.5-.1 1.4l-.3.1c-.3-.6-.6-1.6-1.1-2.6-.4-1-1-2.1-1.2-2.5l.2-.1c.5.9.6 1.1 1.2.9.4-.1 1.6-.6 3.6-1.5l3.7-1.5zM221.9 74.9c2.5-.3 3.3-.4 3.8-.5.6-.1.6-.3.5-1.4h.3c.1.6.1 1.7.2 2.7.1 1 .3 2.1.4 2.7l-.3.1c-.2-1-.3-1.2-.8-1.2s-1.8.1-3.8.3l-4.1.5c-2.2.2-3.3.4-3.8.5-.6.1-.6.3-.6 1.3h-.3c-.1-.6-.1-1.7-.2-2.8-.1-1.1-.3-2.3-.4-2.8h.3c.2 1 .3 1.2.8 1.2s1.7-.1 3.9-.4l4.1-.2zM222.5 81.7c2.5 0 3.3 0 3.8-.1.6 0 .6-.3.7-1.3h.3c0 .6-.1 1.7-.1 2.7 0 1 .1 2.1.1 2.7h-.3c-.1-1-.2-1.2-.6-1.2-.5 0-1.8-.1-3.8-.1h-4.1c-2.2 0-3.3.1-3.9.1-.6 0-.6.2-.7 1.3h-.3c0-.6.1-1.7.1-2.8 0-1.1-.1-2.3-.1-2.8h.3c.1 1 .2 1.3.7 1.3.5 0 1.7.1 3.9.1l4 .1zM222.3 88.5c2.5.3 3.3.3 3.8.4.6 0 .6-.2.8-1.2l.3.1c-.1.6-.2 1.6-.4 2.7-.1 1-.2 2.1-.2 2.7h-.3c0-1 0-1.2-.5-1.3-.5-.1-1.7-.3-3.8-.5l-4.1-.4c-2.2-.2-3.3-.3-3.9-.3-.6 0-.6.2-.8 1.2l-.3-.1c.1-.6.2-1.7.4-2.8.1-1.1.2-2.3.2-2.8h.3c0 1 0 1.3.5 1.4.4.1 1.7.3 3.9.5l4.1.4zM216.9 109c2.2 1.1 3 1.4 3.4 1.6.5.2.7 0 1.2-.9l.2.1c-.3.5-.8 1.5-1.3 2.4-.4.9-.9 2-1.1 2.5l-.3-.1c.4-.9.4-1.2 0-1.4-.4-.3-1.5-.8-3.4-1.7l-3.7-1.8c-2-1-3-1.4-3.5-1.6-.5-.2-.7-.1-1.2.8l-.2-.2c.3-.6.8-1.5 1.3-2.5s.9-2.1 1.2-2.5l.2.1c-.4.9-.4 1.2.1 1.5.4.2 1.5.8 3.5 1.8l3.6 1.9zM218.8 116c-.3.4-1 1.4-1.7 2.3-.6.8-1 1.6-1.5 2.3l-.3-.1.4-.8c.1-.3.1-.4-.2-.5-.6-.3-6.3-2.2-9.5-3.2 1.9 2.5 4.9 6 6.3 7.4.3.3.5.3.7.1.2-.2.5-.5.7-.8l.3.1c-.2.3-.8 1.1-1.2 1.6-.3.5-.5.8-1 1.5l-.3-.1c.6-.8.5-1.3-.2-2.3-1.4-2-4.9-6.3-7.8-9.8.2-.3.7-.9.8-1.2 4.3 1.5 9.7 3.1 12.6 3.9.8.2 1.1.1 1.6-.7l.3.3zM195.9 140c-.5.2-1.6.7-2.6 1.2-.9.4-1.6.9-2.4 1.3l-.2-.2.7-.5c.2-.2.3-.3.1-.6-.4-.5-4.5-4.9-6.8-7.3.5 3.1 1.4 7.7 1.9 9.6.1.4.3.5.6.4.3-.1.7-.2 1-.4l.2.2c-.3.2-1.2.6-1.8.8-.5.3-.8.5-1.6.9l-.2-.2c.9-.5 1.1-.9.9-2.1-.3-2.4-1.2-7.8-2.1-12.4.3-.1 1-.5 1.3-.7 3.1 3.4 7 7.4 9.1 9.5.6.6.9.6 1.8.2l.1.3zM171.2 149.2c-.5 0-1.8.1-2.8.1-1 .1-1.8.2-2.7.3l-.1-.3.8-.2c.3-.1.4-.2.3-.5-.2-.6-2.2-6.3-3.4-9.4-.7 3-1.7 7.6-1.9 9.6 0 .5.1.6.4.6.3 0 .8.1 1.1.1l.1.3c-.4 0-1.4 0-2 .1-.6 0-1 .1-1.8.2l-.1-.3c1-.1 1.3-.4 1.7-1.6.7-2.3 1.9-7.7 2.8-12.3.4 0 1.1 0 1.4-.1 1.6 4.3 3.6 9.5 4.7 12.3.3.8.5.9 1.5.9v.2zM157.1 145c-.2 2.5-.2 3.3-.3 3.8 0 .6.2.6 1.2.8v.3c-.6 0-1.7-.2-2.7-.3-1-.1-2.1-.1-2.7-.2v-.3c1 0 1.2-.1 1.3-.5.1-.5.2-1.7.4-3.8l.3-4.1c.2-2.2.2-3.3.2-3.9 0-.6-.2-.6-1.2-.8l.1-.3c.6.1 1.7.2 2.8.3 1.1.1 2.3.1 2.8.2v.3c-1 0-1.3.1-1.3.6-.1.4-.2 1.7-.4 3.9l-.5 4zM142.6 147.5c-.5-.2-1.6-.7-2.6-1.1-.9-.3-1.7-.6-2.6-.9v-.3l.8.2c.3.1.4 0 .5-.3.1-.6.6-6.6.8-10-1.9 2.4-4.7 6.2-5.7 7.9-.2.4-.1.6.1.7.3.2.7.4 1 .5v.3c-.4-.1-1.3-.5-1.8-.8-.5-.2-.9-.3-1.7-.6v-.3c1 .4 1.4.2 2.2-.7 1.6-1.8 4.9-6.2 7.7-10 .3.2 1.1.4 1.4.5-.4 4.6-.7 10.1-.8 13.1 0 .8.1 1.1 1 1.4l-.3.4zM131.5 137.8c-1.2 2.2-1.6 2.9-1.8 3.3-.2.5-.1.7.8 1.2l-.1.2c-.5-.3-1.4-.9-2.4-1.4-.9-.5-1.9-1-2.4-1.3l.1-.2c.9.4 1.1.5 1.4.1.3-.4.9-1.5 2-3.3l2-3.6c1.1-1.9 1.6-2.9 1.8-3.4.3-.5.1-.7-.7-1.2l.2-.2c.5.3 1.4.9 2.4 1.4.9.5 2 1.1 2.5 1.3l-.1.2c-.9-.4-1.2-.5-1.5 0-.3.4-.9 1.4-2 3.4l-2.2 3.5zM125.7 134.2c-1.5 2-1.9 2.7-2.2 3.1-.3.5-.1.7.6 1.3l-.2.2c-.5-.3-1.3-1-2.2-1.7-.8-.6-1.8-1.2-2.2-1.5l.1-.2c.8.5 1.1.6 1.4.2.3-.4 1.1-1.4 2.3-3.1l2.4-3.3c1.3-1.8 1.9-2.7 2.2-3.2.3-.5.2-.6-.6-1.3l.2-.2c.5.4 1.3 1 2.2 1.7.9.6 1.9 1.3 2.3 1.6l-.2.2c-.9-.5-1.1-.6-1.5-.2-.3.3-1.1 1.3-2.3 3.1l-2.3 3.3zM111.1 128c-.3-.4-1-1.4-1.7-2.3-.6-.8-1.2-1.4-1.7-2.2l.1-.2.6.6c.2.2.4.3.6 0 .4-.5 4.1-5.3 6-8-2.9 1-7.3 2.7-9.1 3.6-.4.2-.4.4-.3.7.1.3.4.7.5 1l-.2.2c-.2-.3-.8-1.1-1.1-1.6-.4-.5-.6-.7-1.1-1.4l.2-.2c.6.8 1.1.9 2.2.5 2.3-.7 7.5-2.6 11.8-4.3.2.3.7.9.9 1.1-2.8 3.6-6 8.2-7.7 10.6-.5.7-.5 1 .1 1.8l-.1.1zM107 113.8c-2.2 1.2-2.9 1.6-3.3 1.8-.5.3-.4.5 0 1.5l-.2.1c-.3-.5-.7-1.5-1.2-2.4-.5-.9-1.1-1.9-1.3-2.3l.2-.2c.5.8.7 1 1.1.8.5-.2 1.6-.8 3.4-1.7l3.6-1.9c1.9-1 2.9-1.6 3.4-1.9.5-.3.4-.5 0-1.4l.2-.1c.3.6.7 1.5 1.3 2.5.5 1 1.1 2 1.4 2.4l-.2.1c-.5-.9-.7-1-1.2-.8-.4.2-1.5.7-3.5 1.8l-3.7 1.7zM104 107.7c-2.3.9-3 1.3-3.5 1.5-.5.3-.5.5-.2 1.5l-.2.1c-.2-.5-.6-1.6-1-2.6-.4-.9-.9-2-1.1-2.5l.2-.1c.4.9.6 1.1 1 .9.5-.2 1.7-.6 3.6-1.4l3.8-1.5c2-.8 3-1.3 3.5-1.6.5-.2.5-.5.2-1.4l.3-.1c.2.6.6 1.6 1 2.6s.9 2.1 1.1 2.6l-.2.1c-.4-.9-.6-1.1-1.1-.9-.4.1-1.6.6-3.6 1.4l-3.8 1.4zM101.6 101.3c-2.4.7-3.2.9-3.6 1.1-.5.2-.5.4-.3 1.4h-.3c-.2-.6-.4-1.6-.7-2.7-.3-1-.6-2-.8-2.6l.2-.1c.3.9.5 1.1.9 1 .5-.1 1.7-.4 3.7-1l3.9-1.1c2.1-.6 3.2-1 3.7-1.2.6-.2.5-.4.3-1.4h.3c.2.6.4 1.6.7 2.7.3 1 .7 2.2.8 2.7l-.3.1c-.3-1-.5-1.2-1-1.1-.4.1-1.6.4-3.8 1l-3.7 1.2zM99.2 88.6c-2.5.2-3.3.3-3.8.3-.6.1-.6.3-.6 1.3h-.3c0-.6-.1-1.7-.1-2.7-.1-1-.2-2.1-.3-2.7l.3-.1c.1 1 .2 1.2.7 1.2.5 0 1.8 0 3.8-.2l4.1-.3c2.2-.2 3.3-.3 3.9-.4.6-.1.6-.3.6-1.3h.3c0 .6.1 1.7.1 2.8.1 1.1.2 2.3.3 2.8h-.3c-.1-1-.2-1.2-.8-1.2-.5 0-1.7 0-3.9.2l-4 .3z" />
         <path d="M94 82.9c.1-.7.2-1.8.3-2.9.1-.9.1-1.7.2-2.5l.3-.1v.7c0 .3.2.4.5.3.6-.2 1.8-.6 4-1.4-1.2-.8-2.6-1.7-3.4-2.1-.5-.3-.7-.3-.9.3l-.2.8-.2-.1c.1-.6.2-1.4.2-1.9.1-.7 0-1.3.1-1.9h.3c0 1.4.2 1.6 1.1 2.3.6.5 1.8 1.4 3.5 2.4 4.5-1.5 6.5-2.2 7.7-2.7.4-.2.7-.4.8-.8l.1-.7.3.1c-.1.7-.2 2-.3 3.1-.1.9-.1 1.8-.2 2.7h-.3c0-.9-.1-1.1-.5-1-.6.1-1.5.4-5.4 1.7 1.4.9 3.3 2 4.3 2.5.9.4 1.1.2 1.2-.3l.2-1 .3-.1c0 .5-.2 1.2-.2 2-.1 1-.1 1.4-.1 2.1l-.3.1c0-.9 0-1.3-.9-1.9-.9-.7-3.3-2.3-4.9-3.3-4.2 1.4-6 2.1-6.6 2.3-.4.1-.6.4-.7 1.3H94zM99.2 57.7c.3-.7.9-1.6 1.4-2.5.4-.8.7-1.5 1.1-2.3h.3l-.2.7c-.1.3 0 .4.4.5.6.1 1.9.2 4.2.3-.8-1.2-1.8-2.6-2.4-3.2-.4-.4-.6-.5-.9 0l-.5.7-.2-.2c.3-.6.7-1.2.9-1.7.4-.6.5-1.2.8-1.7l.3.1c-.5 1.3-.4 1.6.1 2.5.4.7 1.1 2 2.3 3.6 4.8.3 6.8.4 8.1.4.5 0 .8-.1 1-.5l.4-.6.2.2c-.3.7-1 1.7-1.5 2.7l-1.2 2.4-.2-.1c.3-.9.3-1.1 0-1.1-.6-.1-1.5-.2-5.6-.5 1 1.3 2.3 3.1 3 4 .6.7.9.6 1.2.2l.6-.9h.3c-.2.5-.6 1-1 1.8-.5.9-.6 1.3-.9 1.9h-.3c.3-.9.4-1.2-.1-2.1-.6-1-2.2-3.4-3.3-4.9-4.4-.3-6.4-.4-6.9-.4-.4 0-.7.2-1.2 1l-.2-.3zM147.8 17.7c.7-.1 1.9-.1 2.9-.3.9-.1 1.7-.3 2.5-.3l.1.2-.7.2c-.3.1-.3.3-.2.6.3.6.9 1.7 2.1 3.6.5-1.4 1.2-2.9 1.4-3.7.2-.5.1-.8-.5-.8h-.8l.1-.3c.6-.1 1.4-.1 1.9-.2.7-.1 1.3-.2 1.9-.3l.1.3c-1.4.3-1.5.5-2.1 1.5-.4.7-1 2.1-1.7 3.9 2.4 4.2 3.5 5.9 4.1 7 .3.4.5.6 1 .6h.7v.3c-.7.1-2 .2-3.1.3-.9.1-1.8.3-2.7.4v-.3c.9-.2 1.1-.3.9-.6-.3-.6-.7-1.4-2.7-4.9-.6 1.5-1.4 3.6-1.7 4.7-.3.9 0 1.1.5 1.1h1l.1.2c-.5.1-1.2.1-2 .2-1 .1-1.4.2-2.1.3l-.1-.2c.9-.2 1.2-.3 1.7-1.2.5-1 1.6-3.7 2.3-5.4-2.2-3.9-3.2-5.5-3.5-6-.2-.4-.5-.5-1.5-.5l.1-.4z" />
         <path d="M161.6 21.4c.1-2.5.1-3.3.1-3.8 0-.6-.3-.6-1.3-.7v-.3c.6 0 1.7.1 2.7.2h2.7v.3c-1 0-1.2.1-1.3.6-.1.5-.2 1.7-.2 3.8l-.2 4.1c-.1 2.2-.1 3.3 0 3.9 0 .6.2.6 1.2.8l-.1.3c-.6 0-1.7-.1-2.8-.2h-2.8v-.3c1 0 1.3-.1 1.3-.6.1-.5.2-1.7.2-3.9l.5-4.2zM116.7 33c.6-.4 1.5-1.1 2.4-1.7.7-.5 1.3-1.1 2-1.6l.2.1-.5.5c-.2.2-.2.4.1.6.6.3 1.7 1 3.7 2.1-.2-1.5-.5-3.1-.7-3.9-.1-.5-.3-.7-.8-.4l-.7.4-.1-.3c.5-.4 1.2-.8 1.6-1.1.6-.4 1-.8 1.5-1.2l.2.2c-1 .9-1.1 1.2-1 2.3 0 .8.2 2.3.5 4.2 4.1 2.4 6 3.4 7.1 3.9.4.2.8.2 1.2 0l.6-.4.1.2c-.6.4-1.6 1.1-2.5 1.8-.7.6-1.4 1.1-2.1 1.7l-.1-.2c.7-.6.8-.8.5-1-.5-.4-1.3-.8-4.8-2.9.3 1.6.7 3.8.9 4.9.2.9.5 1 1 .7l.9-.5.2.2c-.4.3-1 .7-1.7 1.2-.8.6-1.1.9-1.6 1.3l-.2-.2c.7-.6.9-.9.8-1.9-.1-1.1-.5-4-.8-5.8-3.8-2.2-5.6-3.1-6-3.4-.4-.2-.7-.2-1.5.3l-.4-.1z" />
         <path d="M130.4 29.2c-1.2-2.2-1.6-2.9-1.8-3.3-.3-.5-.5-.4-1.5 0l-.1-.2c.5-.3 1.5-.7 2.5-1.2.9-.5 1.9-1.1 2.4-1.3l.2.2c-.8.5-1 .7-.8 1.1.2.5.8 1.6 1.7 3.4l1.9 3.6c1 1.9 1.6 2.9 1.9 3.4.3.5.5.4 1.4 0l.1.2c-.6.3-1.5.7-2.5 1.3-1 .5-2 1.1-2.4 1.4l-.1-.2c.9-.5 1-.7.8-1.2-.2-.4-.7-1.5-1.8-3.5l-1.9-3.7zM168.4 21.9c.4-2.5.5-3.3.5-3.8 0-.6-.2-.6-1.2-.9l.1-.3c.6.1 1.6.3 2.7.5 1 .1 2.1.3 2.7.3v.3c-1-.1-1.2 0-1.3.4-.1.5-.3 1.7-.7 3.8l-.6 4c-.3 2.2-.4 3.3-.5 3.8-.1.6.1.7 1.1.9l-.1.2c-.6-.1-1.7-.3-2.8-.5-1.1-.2-2.3-.3-2.8-.4l.1-.3c1 .1 1.3 0 1.4-.5.1-.4.3-1.7.7-3.8l.7-3.7z" />
      </g>
      <path d="M160.5 151.9c-38 0-68.9-30.9-68.9-68.9 0-38 30.9-68.9 68.9-68.9 38 0 68.9 30.9 68.9 68.9 0 38-30.9 68.9-68.9 68.9zm0-134.8c-36.3 0-65.9 29.6-65.9 65.9 0 36.3 29.6 65.9 65.9 65.9 36.3 0 65.9-29.6 65.9-65.9 0-36.3-29.6-65.9-65.9-65.9z" fill="#8E7630" />
      <path d="M153.5 60.9h19.8c.3 0 .4.1.4.6 0 .6-.1.6-.4.6h-5.6c-1.1 0-1.1.1-.8 1.2l9.6 31.2c.7 2.4 1.6 5.1 2.1 7.4h.3L187 75c3.1-10.3 2.9-12.6-4.1-12.9-.3 0-.4-.1-.4-.6 0-.6.1-.6.4-.6h14.6c.3 0 .4.1.4.6 0 .4-.1.6-.6.6-4.2.3-5.6 2-9.1 13.3l-11.5 37.8c-.1.4-.4.6-.8.6H174c-.4 0-.6-.1-.7-.6L161.2 73l-12.3 40.3c-.1.4-.4.6-.8.6h-1.9c-.4 0-.6-.1-.7-.6l-15.2-49.8c-.4-1.1-.5-1.2-1.6-1.2h-3.2c-.3 0-.4-.1-.4-.6 0-.6.1-.6.4-.6h19.8c.3 0 .4.1.4.6 0 .6-.1.6-.4.6h-5.6c-1.1 0-1.1.1-.8 1.2l9.6 31.2c.7 2.4 1.6 5.1 2.1 7.4h.3l9.5-31.1-2.3-7.5c-.4-1.1-.5-1.2-1.6-1.2h-3.2c-.3 0-.4-.1-.4-.6.1-.7.3-.8.6-.8z" fill="#2E4922" />
      <path d="M16.6 164.3c3.8 0 9.7 0 16.1-4-.2 1.6.3 2.6 1.1 3.3 1.3 1.1 3.8.6 6.5-1 .3.6 1.6 1.9 3.8 1.9 3.2 0 5-1.5 6.1-3.1.5 1.3 1.9 3 4.2 3 7.9 0 9.9-4.5 9.9-8.3 3.6 4.9 9.4 8.1 16 8.1 10.9 0 19.8-8.9 19.8-19.8s-7.9-20.6-20.4-20.6c-12.5 0-17.3 2.6-33.4 14.9-16.2 12.4-21.3 16.9-25.9 18.5 1.9-1.9 3.1-4.5 3.1-7.4 0-5.7-4.6-10.4-10.4-10.4-5.7 0-10.4 4.6-10.4 10.4.1 3-.3 14.5 13.9 14.5z" fill="#B39F66" />
      <path d="M44.2 166.1c-1.7 0-3.1-.2-4.2-1-4.1 2-6.4.9-7.4 0-.6-.5-1-1.1-1.3-1.7-5.5 2.7-10.6 2.9-13.9 2.9h-.6c-5.1 0-9.1-1.4-11.8-4.2C.9 158 .9 152.2.9 150v-.2c0-6.8 5.5-12.4 12.4-12.4s12.4 5.5 12.4 12.4c0 .8-.1 1.6-.2 2.4 2.6-1.8 5.8-4.3 10.4-7.9 2.7-2.1 5.8-4.5 9.4-7.2 16-12.2 21.5-15.3 34.6-15.3 12.8 0 22.4 9.7 22.4 22.6 0 12-9.8 21.8-21.8 21.8-5.5 0-10.8-2.1-14.8-5.8-2.3 5.5-8.8 5.8-11.1 5.8-1.8 0-3.3-.6-4.4-1.7-1.7 1.4-3.7 1.6-6 1.6zm-2-4.4c.2.2.8.8 2 .8 2.6 0 3.8-1.2 4.5-2.2.4-.6 1.2-.9 1.9-.8.7.1 1.4.6 1.6 1.3.2.6 1 1.7 2.3 1.7 5.3 0 7.9-2.1 7.9-6.3 0-.9.6-1.6 1.4-1.9.8-.3 1.7 0 2.2.7 3.3 4.6 8.7 7.3 14.4 7.3 9.8 0 17.8-8 17.8-17.8 0-9-6.4-18.6-18.4-18.6-12.1 0-16.6 2.6-32.2 14.5-3.7 2.8-6.8 5.2-9.4 7.2-9.3 7.2-13.2 10.2-17.1 11.6-.9.3-1.9 0-2.4-.8s-.4-1.8.3-2.5c1.6-1.6 2.5-3.7 2.5-5.9 0-4.6-3.8-8.4-8.4-8.4-4.6 0-8.4 3.8-8.4 8.4v.2c0 1.9 0 6.3 2.9 9.3 1.9 2 5 2.9 9 2.9 3.6 0 9.1 0 15-3.7.7-.4 1.5-.4 2.1 0 .6.4 1 1.2.9 1.9-.1.9.1 1.2.5 1.5.3.2 1.7.3 4.2-1.2.5-.3 1.1-.4 1.6-.2.6.2 1.1.6 1.3 1z" fill="#8E762F" />
      <path d="M32.2 162.6c-.6 0-1.3-.3-1.6-.9-.6-.9-.4-2.2.5-2.8 1.5-1 3.5-3 6.1-5.4 3.4-3.2 7.6-7.1 13.1-11.6.7-.5 1.3-1.1 2-1.6 7.1-5.8 13.8-11.2 23.8-11.9 4.6-.3 11.3.8 15 4.8 2.6 2.9 4.1 7 4.1 11.7 0 7.6-6.9 14.7-14.2 14.7-7.3 0-13.3-6-13.3-13.3 0-3.6 1.4-7 4-9.5.8-.8 2.1-.8 2.8 0 .8.8.8 2.1 0 2.8-1.8 1.8-2.8 4.1-2.8 6.6 0 5.1 4.2 9.3 9.3 9.3 5.1 0 10.2-5.4 10.2-10.7 0-3.7-1.1-6.8-3-8.9-2.6-2.8-7.8-3.8-11.8-3.5-8.8.6-14.7 5.4-21.5 11-.7.5-1.3 1.1-2 1.6-5.4 4.4-9.5 8.2-12.8 11.4-2.7 2.6-4.9 4.6-6.6 5.8-.5.3-.9.4-1.3.4z" fill="#8E762E" />
      <path d="M63.1 163.1c-.5 0-.9-.2-1.3-.5-.8-.7-.9-2-.2-2.8.7-.9 1-2.3.8-3.9-.1-1.2-.5-2.4-.9-3.6-.2-.5-.3-1.1-.5-1.6-.9-3.3-1.1-6.1-.6-8.7 1.4-7.5 8.3-11.8 13.9-13.2 1.1-.3 2.2.4 2.4 1.4.3 1.1-.4 2.2-1.4 2.4-4.7 1.2-9.9 4.8-10.9 10.1-.4 2-.2 4.3.5 6.9.1.5.3 1 .4 1.5.4 1.4.8 2.8 1 4.3.3 2.7 3.4 6.3 1.9 8-.3.5-4.6-.3-5.1-.3z" fill="#8E762E" />
      <path d="M48 165.5c-.7 0-1.4-.4-1.7-1-.6-1-.2-2.2.7-2.7 2-1.1 3.1-3.4 3.7-5.1.5-1.4.8-3 1.2-4.5.2-1 .4-1.9.6-2.9 2.4-9.3 8.6-16.3 17.6-19.6 1-.4 2.2.1 2.6 1.2.4 1-.1 2.2-1.2 2.6-7.7 2.9-13.1 8.9-15.1 16.9l-.6 2.7c-.3 1.7-.7 3.4-1.3 5-1.2 3.3-3 5.8-5.4 7.2-.4.1-.8.2-1.1.2z" fill="#8E762E" />
      <path d="M39.6 165.1c-.7 0-1.4-.4-1.7-1-.6-1-.2-2.2.7-2.7 2.5-1.4 5.2-6.1 7.4-9.8 1.1-1.9 2.1-3.6 3.1-4.9 3.4-4.6 7.3-8.9 11.7-12.6.8-.7 2.1-.6 2.8.2.7.8.6 2.1-.2 2.8-4.1 3.6-7.8 7.6-11.1 12-.8 1.1-1.8 2.8-2.9 4.6-2.5 4.3-5.4 9.3-8.8 11.2-.3.1-.7.2-1 .2zM16.4 160.5c-4.8 0-8.7-3.9-8.7-8.7 0-1.1.9-2 2-2s2 .9 2 2c0 2.6 2.1 4.7 4.7 4.7 2.5 0 5.1-3.7 5.1-6.3 0-1.1.9-2 2-2s2 .9 2 2c.1 4.6-4.2 10.3-9.1 10.3z" fill="#8E762E" />
      <path d="M318.7 149.9c0-5.7-4.6-10.4-10.4-10.4-5.7 0-10.4 4.6-10.4 10.4 0 2.9 1.2 5.5 3.1 7.4-4.6-1.6-9.7-6.1-25.9-18.5-16.1-12.3-21-14.9-33.4-14.9-12.4 0-20.4 9.7-20.4 20.6 0 10.9 8.9 19.8 19.8 19.8 6.6 0 12.4-3.2 16-8.1 0 3.9 2 8.3 9.9 8.3 2.2 0 3.7-1.7 4.2-3 1.1 1.6 2.9 3.1 6.1 3.1 2.2 0 3.5-1.3 3.8-1.9 2.8 1.6 5.2 2.1 6.5 1 .8-.7 1.3-1.7 1.1-3.3 6.4 4 12.3 4 16.1 4 14.3-.1 13.9-11.6 13.9-14.5z" fill="#B39F66" />
      <path d="M277.4 166.1c-2.3 0-4.3-.2-5.9-1.5-1.1 1.1-2.6 1.5-4.4 1.5-2.3 0-9.4-.7-11.8-2.8-3.9 2.7-8.6 3-14.1 3-12 0-21.8-9.8-21.8-21.8 0-12.9 9.6-22.6 22.4-22.6 13.2 0 18.4 2.9 34.6 15.3 3.7 2.8 6.8 5.2 9.4 7.3 4.6 3.6 7.9 6.1 10.4 7.9-.2-.8-.2-1.6-.2-2.4 0-6.8 5.5-12.4 12.4-12.4s12.4 5.5 12.4 12.4v.2c0 2.2 0 8-4.1 12.1-2.7 2.7-6.7 4.2-11.8 4.2-3.4 0-8.7 0-14.6-2.9-.3.6-.8 1.2-1.3 1.7-1 .9-3.3 2-7.4 0-1.1.6-2.6.8-4.2.8zm-6.2-6.7c.6 0 1.3.3 1.6.9.7 1 1.9 2.2 4.5 2.2 1.2 0 1.8-.6 2-.8.2-.5.7-.8 1.2-1 .5-.2 1.1-.1 1.6.2 2.5 1.5 3.9 1.4 4.2 1.2.3-.3.6-.6.5-1.5-.1-.8.2-1.5.9-1.9.7-.4 1.5-.4 2.1 0 5.9 3.7 11.4 3.7 15 3.7 4 0 7-1 9-2.9 2.9-2.9 2.9-7.4 2.9-9.3v-.2c0-4.6-3.8-8.4-8.4-8.4-4.6 0-8.4 3.8-8.4 8.4 0 2.2.9 4.4 2.5 5.9.7.7.8 1.7.3 2.5s-1.5 1.1-2.4.8c-3.9-1.4-7.7-4.3-17.1-11.6-2.7-2-5.7-4.4-9.4-7.2-15.6-11.9-20.1-14.5-32.2-14.5-11.9 0-18.4 9.6-18.4 18.6 0 9.8 8 17.8 17.8 17.8 5.6 0 11-2.7 14.4-7.3.5-.7 1.4-1 2.2-.7.8.3 1.4 1 1.4 1.9 0 4.2 2.7 6.3 7.9 6.3 1.3 0 2.1-1.1 2.3-1.7.3-.7.9-1.2 1.6-1.3.3-.1.3-.1.4-.1z" fill="#8E762F" />
      <path d="M289.4 162.6c-.4 0-.8-.1-1.1-.4-1.7-1.2-3.9-3.2-6.6-5.8-3.3-3.1-7.5-7-12.8-11.4-.7-.5-1.3-1.1-2-1.6-6.8-5.6-12.8-10.4-21.5-11-4-.3-9.2.7-11.8 3.5-1.9 2.1-3 5.3-3 8.9 0 5.3 5.2 10.7 10.2 10.7 5.1 0 9.3-4.2 9.3-9.3 0-2.5-1-4.9-2.8-6.6-.8-.8-.8-2 0-2.8.8-.8 2-.8 2.8 0 2.6 2.5 4 5.9 4 9.5 0 7.3-6 13.3-13.3 13.3-7.3 0-14.2-7.1-14.2-14.7 0-4.7 1.4-8.8 4.1-11.7 3.7-4 10.4-5.1 15-4.8 10.1.7 16.7 6.1 23.8 11.9.6.5 1.3 1.1 2 1.6 5.5 4.4 9.7 8.4 13.1 11.6 2.6 2.4 4.6 4.4 6.1 5.4.9.6 1.1 1.9.5 2.8-.6.6-1.2.9-1.8.9z" fill="#8E762E" />
      <path d="M258.5 163.1c-.6 0-1.1-.2-1.5-.7-1.5-1.7-2.1-4.2-1.8-6.9.2-1.5.6-2.9 1-4.3.2-.5.3-1 .4-1.5.7-2.7.9-4.9.5-6.9-1-5.3-6.2-8.8-10.9-10.1-1.1-.3-1.7-1.4-1.4-2.4.3-1.1 1.4-1.7 2.4-1.4 5.5 1.4 12.5 5.7 13.9 13.2.5 2.6.3 5.5-.6 8.7-.1.5-.3 1.1-.5 1.6-.4 1.3-.7 2.4-.9 3.6-.2 1.6.1 3 .8 3.9.7.8.6 2.1-.2 2.8-.3.2-.8.4-1.2.4z" fill="#8E762E" />
      <path d="M273.6 165.5c-.3 0-.7-.1-1-.3-2.4-1.4-4.3-3.9-5.4-7.2-.6-1.7-.9-3.4-1.3-5l-.6-2.7c-2-8-7.4-14-15.1-16.9-1-.4-1.6-1.5-1.2-2.6.4-1.1 1.5-1.6 2.6-1.2 9 3.4 15.2 10.4 17.6 19.6.2.9.4 1.9.6 2.9.3 1.6.7 3.1 1.2 4.5.6 1.7 1.7 3.9 3.7 5.1 1 .6 1.3 1.8.7 2.7-.5.7-1.1 1.1-1.8 1.1z" fill="#8E762E" />
      <path d="M282 165.1c-.3 0-.7-.1-1-.3-3.4-2-6.3-6.9-8.8-11.2-1-1.8-2-3.5-2.9-4.6-3.2-4.4-7-8.4-11.1-12-.8-.7-.9-2-.2-2.8.7-.8 2-.9 2.8-.2 4.3 3.7 8.3 8 11.7 12.6 1 1.3 2 3.1 3.1 4.9 2.2 3.7 4.9 8.3 7.4 9.8 1 .6 1.3 1.8.7 2.7-.4.7-1 1.1-1.7 1.1zM305.1 160.5c-4.9 0-9.1-5.7-9.1-10.3 0-1.1.9-2 2-2s2 .9 2 2c0 2.6 2.6 6.3 5.1 6.3 2.6 0 4.7-2.1 4.7-4.7 0-1.1.9-2 2-2s2 .9 2 2c0 4.7-3.9 8.7-8.7 8.7z" fill="#8E762E" />
      <path fill="#8E762F" d="M21.5 159l-2.2.8-1.4-.7z" />
      <path d="M67.9 157.1s-1.4-1.9-1.8-3.2c-.4-1.3-.6.9-.6.9l1.6 3.4.8-1.1z" fill="#8E762E" />
      <path d="M256 151.8s-.7 3.8-1.9 5c-1.2 1.2-1.8 1.7-1.8 1.7l4.2-1.7-.5-5zM305.9 166.3s1.5.1 2.4 0c.9-.1 2.8-.5 4.9-1.6" fill="#8E762F" />
   </g>
</svg>